<?xml version="1.0" encoding="iso-8859-1"?><!-- Generator: Adobe Illustrator 22.1.0, SVG Export Plug-In . SVG Version: 6.00 Build 0)  --><svg xmlns="http://www.w3.org/2000/svg" xmlns:xlink="http://www.w3.org/1999/xlink" viewBox="0 0 100 100" width="100px" height="100px"><g><g><g><circle style="fill:#EE3E54;" cx="13" cy="29" r="2"/></g><g><circle style="fill:#F1BC19;" cx="77" cy="13" r="1"/></g><g><circle style="fill:#FCE0A2;" cx="50" cy="50" r="37"/></g><g><circle style="fill:#F1BC19;" cx="83" cy="15" r="4"/></g><g><circle style="fill:#EE3E54;" cx="87" cy="24" r="2"/></g><g><circle style="fill:#FBCD59;" cx="81" cy="76" r="2"/></g><g><circle style="fill:#FBCD59;" cx="15" cy="63" r="4"/></g><g><circle style="fill:#EE3E54;" cx="25" cy="87" r="2"/></g><g><circle style="fill:#FFFFFF;" cx="18.5" cy="53.5" r="2.5"/></g><g><circle style="fill:#F1BC19;" cx="21" cy="67" r="1"/></g><g><circle style="fill:#FFFFFF;" cx="80" cy="34" r="1"/></g></g></g><g><g><path style="fill:#CDCBBD;" d="M29.509,69.3c-0.503,0-1.126-0.145-1.482-1.275c-0.274-0.872-0.273-1.945-0.272-2.655L27.7,37.796v-3.822c0-1.694,1.321-3.072,2.945-3.072h17.646c1.659,0,3.009,1.455,3.009,3.244v1.459c0,1.244,0.968,2.257,2.157,2.257h16.086c0.417,0,0.757,0.385,0.757,0.857v23.565c0,0.334,0.013,0.748,0.026,1.214c0.05,1.703,0.131,4.46-0.436,5.802H29.509z"/></g><g><path style="fill:#472B29;" d="M48.291,31.601c1.273,0,2.309,1.141,2.309,2.544v1.458c0,1.631,1.282,2.957,2.857,2.957l16.076-0.002c0.011,0.005,0.067,0.053,0.067,0.159v23.566c0,0.339,0.012,0.761,0.026,1.234c0.038,1.287,0.11,3.738-0.236,5.082h-39.88c-0.266,0-0.567,0-0.815-0.786c-0.242-0.769-0.241-1.777-0.241-2.444l0-0.092L28.4,37.797v-3.824c0-1.308,1.007-2.372,2.245-2.372H48.291 M48.291,30.201H30.645c-2.005,0-3.645,1.698-3.645,3.772v3.824l0.054,27.484C27.054,66.704,27,70,29.509,70h40.804C71.368,68.355,71,64.102,71,62.285V38.719c0-0.86-0.652-1.557-1.457-1.557H53.457c-0.805,0-1.457-0.697-1.457-1.557v-1.458C52,31.977,50.331,30.201,48.291,30.201L48.291,30.201z"/></g></g><g><g><path style="fill:#FDFCEE;" d="M29.594,69.3c-0.061-0.007-0.15-0.105-0.214-0.215c1.214-0.343,1.32-2.538,1.32-5.146V42.231c0-0.293,0.229-0.531,0.512-0.531h41.576c0.282,0,0.512,0.238,0.512,0.531v23.582c0,1.923-1.534,3.486-3.42,3.486H29.594z"/></g><g><path style="fill:#472B29;" d="M72.6,42.4v23.413c0,1.537-1.22,2.787-2.72,2.787H30.849c0.551-1.191,0.551-3.047,0.551-4.66V42.4H72.6 M72.788,41H31.212C30.542,41,30,41.551,30,42.231V63.94c0,2.779-0.188,4.492-0.974,4.492c-0.85,0-0.282,1.568,0.568,1.568H69.88c2.275,0,4.12-1.874,4.12-4.187V42.231C74,41.551,73.458,41,72.788,41L72.788,41z"/></g></g><g><path style="fill:#472B29;" d="M41.5,35h-11c-0.276,0-0.5-0.224-0.5-0.5s0.224-0.5,0.5-0.5h11c0.276,0,0.5,0.224,0.5,0.5S41.776,35,41.5,35z"/></g><g><path style="fill:#472B29;" d="M48.5,35h-4c-0.276,0-0.5-0.224-0.5-0.5s0.224-0.5,0.5-0.5h4c0.276,0,0.5,0.224,0.5,0.5S48.776,35,48.5,35z"/></g><g><path style="fill:#472B29;" d="M51.5,53h-14c-0.276,0-0.5-0.224-0.5-0.5v-6c0-0.276,0.224-0.5,0.5-0.5h14c0.276,0,0.5,0.224,0.5,0.5v6C52,52.776,51.776,53,51.5,53z M38,52h13v-5H38V52z"/></g></svg>