<?xml version="1.0" encoding="iso-8859-1"?><!-- Generator: Adobe Illustrator 22.1.0, SVG Export Plug-In . SVG Version: 6.00 Build 0)  --><svg xmlns="http://www.w3.org/2000/svg" xmlns:xlink="http://www.w3.org/1999/xlink" viewBox="0 0 100 100" width="100px" height="100px"><g><circle style="fill:#F1BC19;" cx="77" cy="13" r="1"/><circle style="fill:#C0E5E4;" cx="50" cy="50" r="37"/><circle style="fill:#F1BC19;" cx="83" cy="15" r="4"/><circle style="fill:#00A5A5;" cx="87" cy="24" r="2"/><circle style="fill:#FBCD59;" cx="81" cy="76" r="2"/><circle style="fill:#FBCD59;" cx="15" cy="63" r="4"/><circle style="fill:#00A5A5;" cx="25" cy="87" r="2"/><circle style="fill:#FFFFFF;" cx="18.5" cy="51.5" r="2.5"/><circle style="fill:#FFFFFF;" cx="79.5" cy="33.5" r="1.5"/></g><g><polygon style="fill:#FDFCEE;" points="25,44.6 25,67 52,67 52,68 75,68 75,44.6  "/><path style="fill:#B2B1C2;" d="M30.375,67c0,0,0-9.446,0-12s2.071-4.625,4.625-4.625s4.625,2.071,4.625,4.625c0,1.364,0,12,0,12   H30.375z"/><polygon style="fill:#CDCBBD;" points="25,44.6 25,46 52,46 52,47 75,47 75,44.6  "/><polygon style="fill:#EE3E54;" points="73.353,30.9 27.586,30.9 22.982,44.1 77.035,44.1  "/><path style="fill:#472B29;" d="M25.4,44H24v23.5c0,0.276,0.224,0.5,0.5,0.5H52v-1.4H25.4V44z"/><path style="fill:#472B29;" d="M74.6,44v23.6H52.4V44H51v24.5c0,0.276,0.224,0.5,0.5,0.5h24c0.276,0,0.5-0.224,0.5-0.5V44H74.6z"/><path style="fill:#472B29;" d="M72.973,31.4l3.404,12.2H23.686l4.255-12.2L72.973,31.4 M73.498,30H27.451   c-0.301,0-0.569,0.189-0.668,0.471l-4.744,13.6C21.881,44.526,22.221,45,22.707,45h54.586c0.467,0,0.805-0.441,0.681-0.887   l-3.795-13.6C74.094,30.21,73.816,30,73.498,30L73.498,30z"/><path style="fill:#472B29;" d="M63.625,34h-34.25C29.168,34,29,33.832,29,33.625s0.168-0.375,0.375-0.375h34.25   c0.207,0,0.375,0.168,0.375,0.375S63.832,34,63.625,34z"/><path style="fill:#472B29;" d="M62.625,36h-33.75c-0.207,0-0.375-0.168-0.375-0.375s0.168-0.375,0.375-0.375h33.75   c0.207,0,0.375,0.168,0.375,0.375S62.832,36,62.625,36z"/><path style="fill:#472B29;" d="M61.625,38h-33.25C28.168,38,28,37.832,28,37.625s0.168-0.375,0.375-0.375h33.25   c0.207,0,0.375,0.168,0.375,0.375S61.832,38,61.625,38z"/><path style="fill:#FBB97F;" d="M71,27.25c-0.349,0-4.649,0-5,0c-0.414,0-0.75,0.336-0.75,0.75s0.336,0.75,0.75,0.75   c0.351,0,4.651,0,5,0c0.414,0,0.75-0.336,0.75-0.75S71.414,27.25,71,27.25z"/><path style="fill:#472B29;" d="M71,29h-5c-0.551,0-1-0.449-1-1s0.449-1,1-1h5c0.551,0,1,0.449,1,1S71.551,29,71,29z M66,27.5   c-0.276,0-0.5,0.224-0.5,0.5s0.224,0.5,0.5,0.5h5c0.276,0,0.5-0.224,0.5-0.5s-0.224-0.5-0.5-0.5H66z"/><polygon style="fill:#FDD4B2;" points="70.75,37.75 66.25,37.75 66.25,28.75 70.875,28.75  "/><path style="fill:#472B29;" d="M70.75,38h-4.5C66.112,38,66,37.888,66,37.75v-9c0-0.138,0.112-0.25,0.25-0.25h4.625   c0.067,0,0.131,0.027,0.178,0.074c0.047,0.048,0.073,0.112,0.072,0.179l-0.125,9C70.998,37.89,70.887,38,70.75,38z M66.5,37.5   h4.003l0.118-8.5H66.5V37.5z"/><path style="fill:#472B29;" d="M74.875,47.5H57.25c-0.138,0-0.25-0.112-0.25-0.25S57.112,47,57.25,47h17.625   c0.138,0,0.25,0.112,0.25,0.25S75.013,47.5,74.875,47.5z"/><path style="fill:#472B29;" d="M55.75,47.5h-1.5c-0.138,0-0.25-0.112-0.25-0.25S54.112,47,54.25,47h1.5   c0.138,0,0.25,0.112,0.25,0.25S55.888,47.5,55.75,47.5z"/><path style="fill:#472B29;" d="M43.75,46.5H25.125c-0.138,0-0.25-0.112-0.25-0.25S24.987,46,25.125,46H43.75   c0.138,0,0.25,0.112,0.25,0.25S43.888,46.5,43.75,46.5z"/><path style="fill:#472B29;" d="M47.75,46.5h-1.5c-0.138,0-0.25-0.112-0.25-0.25S46.112,46,46.25,46h1.5   c0.138,0,0.25,0.112,0.25,0.25S47.888,46.5,47.75,46.5z"/><polygon style="fill:#C0E5E4;" points="68.625,54.375 68.625,62.625 58.375,62.625 58.375,51.375 66.625,51.375  "/><path style="fill:#472B29;" d="M68.625,63h-10.25C58.168,63,58,62.832,58,62.625v-11.25C58,51.168,58.168,51,58.375,51h8.25   C66.832,51,67,51.168,67,51.375s-0.168,0.375-0.375,0.375H58.75v10.5h9.5v-7.875c0-0.207,0.168-0.375,0.375-0.375   S69,54.168,69,54.375v8.25C69,62.832,68.832,63,68.625,63z"/><path style="fill:#472B29;" d="M63.5,63c-0.207,0-0.375-0.168-0.375-0.375v-11.25c0-0.207,0.168-0.375,0.375-0.375   s0.375,0.168,0.375,0.375v11.25C63.875,62.832,63.707,63,63.5,63z"/><polygon style="fill:#C0E5E4;" points="48.625,56.625 48.628,51.375 42.378,51.375 42.375,58.625 47.625,58.625  "/><path style="fill:#472B29;" d="M47.625,59h-5.25c-0.1,0-0.195-0.04-0.265-0.11S42,58.724,42,58.625l0.003-7.25   c0-0.207,0.168-0.375,0.375-0.375h6.25c0.1,0,0.195,0.04,0.265,0.11s0.11,0.166,0.11,0.265L49,56.625   C49,56.832,48.832,57,48.625,57l0,0c-0.208,0-0.375-0.168-0.375-0.375l0.003-4.875h-5.5l-0.003,6.5h4.875   c0.207,0,0.375,0.168,0.375,0.375S47.832,59,47.625,59z"/><path style="fill:#472B29;" d="M45.503,58.987c-0.207,0-0.375-0.168-0.375-0.375v-7.237c0-0.207,0.168-0.375,0.375-0.375   s0.375,0.168,0.375,0.375v7.237C45.878,58.819,45.71,58.987,45.503,58.987z"/><path style="fill:#472B29;" d="M39.625,67.375c-0.207,0-0.375-0.168-0.375-0.375V55c0-2.343-1.907-4.25-4.25-4.25   s-4.25,1.907-4.25,4.25v12c0,0.207-0.168,0.375-0.375,0.375S30,67.207,30,67V55c0-2.757,2.243-5,5-5s5,2.243,5,5v12   C40,67.207,39.832,67.375,39.625,67.375z"/><path style="fill:#C0E5E4;" d="M37.75,56c0,0.547,0,1.75,0,1.75h-5.5c0,0,0-0.231,0-1.75s1.231-2.75,2.75-2.75   S37.75,54.481,37.75,56z"/><path style="fill:#472B29;" d="M37.75,58h-5.5C32.112,58,32,57.888,32,57.75V56c0-1.654,1.346-3,3-3s3,1.346,3,3v1.75   C38,57.888,37.888,58,37.75,58z M32.5,57.5h5V56c0-1.378-1.122-2.5-2.5-2.5s-2.5,1.122-2.5,2.5V57.5z"/><path style="fill:#472B29;" d="M37.75,61h-0.5C37.112,61,37,60.888,37,60.75s0.112-0.25,0.25-0.25h0.5   c0.138,0,0.25,0.112,0.25,0.25S37.888,61,37.75,61z"/></g></svg>