<?xml version="1.0" encoding="UTF-8"?>
<svg version="1.1" xmlns="http://www.w3.org/2000/svg" width="100" height="100">
<path d="M0 0 C10.24816326 6.36401975 15.88111199 14.26833596 19.6796875 25.6640625 C20.57246904 38.0992339 19.7940559 47.99250991 12.6796875 58.6640625 C12.29468859 60.31955781 11.95175615 61.9863058 11.6796875 63.6640625 C10.81730469 63.93089844 9.95492187 64.19773437 9.06640625 64.47265625 C5.69916272 65.65721136 2.66207932 67.0913965 -0.5078125 68.7265625 C-9.98155051 73.600473 -20.5402137 74.36642497 -30.9296875 71.7578125 C-37.02003354 69.34640645 -41.64854448 66.22965397 -46.3203125 61.6640625 C-46.9803125 63.3140625 -47.6403125 64.9640625 -48.3203125 66.6640625 C-50.31985996 66.70660606 -52.32072886 66.70487033 -54.3203125 66.6640625 C-55.3203125 65.6640625 -55.3203125 65.6640625 -55.4453125 62.6640625 C-55.3203125 59.6640625 -55.3203125 59.6640625 -54.3203125 58.6640625 C-52.65414135 58.62342418 -50.98643155 58.6213415 -49.3203125 58.6640625 C-49.74183594 57.83261719 -50.16335937 57.00117187 -50.59765625 56.14453125 C-51.14550781 55.05785156 -51.69335938 53.97117188 -52.2578125 52.8515625 C-52.80308594 51.77261719 -53.34835938 50.69367188 -53.91015625 49.58203125 C-57.83556099 41.45937935 -57.51281172 30.88197374 -55.51953125 22.16015625 C-51.2305377 10.85548939 -43.79960312 3.68368729 -32.921875 -1.27734375 C-22.84788005 -5.37652188 -9.73295725 -4.82603698 0 0 Z " fill="#F8DAD1" transform="translate(68.3203125,15.3359375)"/>
<path d="M0 0 C1.3756311 -0.00574036 1.3756311 -0.00574036 2.77905273 -0.01159668 C4.71566873 -0.01431549 6.65232147 -0.00695646 8.58886719 0.00976562 C11.55226553 0.03117606 14.51323951 0.00996331 17.4765625 -0.015625 C19.35938035 -0.01298172 21.24219669 -0.00785673 23.125 0 C24.01050537 -0.00809692 24.89601074 -0.01619385 25.80834961 -0.02453613 C29.61255755 0.03341758 31.88137143 0.08843838 35.11914062 2.19335938 C36.93633696 5.13677482 37.07881951 7.01767298 37.09375 10.46875 C37.10148437 12.18191406 37.10148437 12.18191406 37.109375 13.9296875 C37.09390625 15.11820313 37.0784375 16.30671875 37.0625 17.53125 C37.07796875 18.71976563 37.0934375 19.90828125 37.109375 21.1328125 C37.10421875 22.27492188 37.0990625 23.41703125 37.09375 24.59375 C37.08923828 25.63660156 37.08472656 26.67945313 37.08007812 27.75390625 C36.5625 30.53125 36.5625 30.53125 35.11914062 32.86914062 C31.24061607 35.39062603 27.65972611 35.10396483 23.125 35.0625 C21.7493689 35.06824036 21.7493689 35.06824036 20.34594727 35.07409668 C18.40933127 35.07681549 16.47267853 35.06945646 14.53613281 35.05273438 C11.57273447 35.03132394 8.61176049 35.05253669 5.6484375 35.078125 C3.76561965 35.07548172 1.88280331 35.07035673 0 35.0625 C-0.88550537 35.07059692 -1.77101074 35.07869385 -2.68334961 35.08703613 C-6.48755755 35.02908242 -8.75637143 34.97406162 -11.99414062 32.86914062 C-13.81133696 29.92572518 -13.95381951 28.04482702 -13.96875 24.59375 C-13.97390625 23.45164062 -13.9790625 22.30953125 -13.984375 21.1328125 C-13.96890625 19.94429687 -13.9534375 18.75578125 -13.9375 17.53125 C-13.95296875 16.34273437 -13.9684375 15.15421875 -13.984375 13.9296875 C-13.97921875 12.78757812 -13.9740625 11.64546875 -13.96875 10.46875 C-13.96423828 9.42589844 -13.95972656 8.38304687 -13.95507812 7.30859375 C-13.4375 4.53125 -13.4375 4.53125 -11.99414062 2.19335938 C-8.11561607 -0.32812603 -4.53472611 -0.04146483 0 0 Z " fill="#4779A4" transform="translate(38.4375,32.46875)"/>
<path d="M0 0 C13.2 0 26.4 0 40 0 C34.375 5.625 34.375 5.625 31.44921875 8.11328125 C30.83369141 8.63857422 30.21816406 9.16386719 29.58398438 9.70507812 C28.64522461 10.50075195 28.64522461 10.50075195 27.6875 11.3125 C26.71973633 12.13717773 26.71973633 12.13717773 25.73242188 12.97851562 C24.15656558 14.32091173 22.57850879 15.66072394 21 17 C16.92511907 15.30213295 13.80587028 12.47359571 10.5 9.625 C9.93152344 9.14289062 9.36304688 8.66078125 8.77734375 8.1640625 C5.70312833 5.53921035 2.87200257 2.87200257 0 0 Z " fill="#C3DBED" transform="translate(30,35)"/>
<path d="M0 0 C1.3756311 -0.00574036 1.3756311 -0.00574036 2.77905273 -0.01159668 C4.71566873 -0.01431549 6.65232147 -0.00695646 8.58886719 0.00976562 C11.55226553 0.03117606 14.51323951 0.00996331 17.4765625 -0.015625 C19.35938035 -0.01298172 21.24219669 -0.00785673 23.125 0 C24.01050537 -0.00809692 24.89601074 -0.01619385 25.80834961 -0.02453613 C29.61255755 0.03341758 31.88137143 0.08843838 35.11914062 2.19335938 C36.93633696 5.13677482 37.07881951 7.01767298 37.09375 10.46875 C37.10148437 12.18191406 37.10148437 12.18191406 37.109375 13.9296875 C37.09390625 15.11820313 37.0784375 16.30671875 37.0625 17.53125 C37.07796875 18.71976563 37.0934375 19.90828125 37.109375 21.1328125 C37.10421875 22.27492188 37.0990625 23.41703125 37.09375 24.59375 C37.08923828 25.63660156 37.08472656 26.67945313 37.08007812 27.75390625 C36.5625 30.53125 36.5625 30.53125 35.11914062 32.86914062 C31.24061607 35.39062603 27.65972611 35.10396483 23.125 35.0625 C21.7493689 35.06824036 21.7493689 35.06824036 20.34594727 35.07409668 C18.40933127 35.07681549 16.47267853 35.06945646 14.53613281 35.05273438 C11.57273447 35.03132394 8.61176049 35.05253669 5.6484375 35.078125 C3.76561965 35.07548172 1.88280331 35.07035673 0 35.0625 C-0.88550537 35.07059692 -1.77101074 35.07869385 -2.68334961 35.08703613 C-6.48755755 35.02908242 -8.75637143 34.97406162 -11.99414062 32.86914062 C-13.81133696 29.92572518 -13.95381951 28.04482702 -13.96875 24.59375 C-13.97390625 23.45164062 -13.9790625 22.30953125 -13.984375 21.1328125 C-13.96890625 19.94429687 -13.9534375 18.75578125 -13.9375 17.53125 C-13.95296875 16.34273437 -13.9684375 15.15421875 -13.984375 13.9296875 C-13.97921875 12.78757812 -13.9740625 11.64546875 -13.96875 10.46875 C-13.96423828 9.42589844 -13.95972656 8.38304687 -13.95507812 7.30859375 C-13.4375 4.53125 -13.4375 4.53125 -11.99414062 2.19335938 C-8.11561607 -0.32812603 -4.53472611 -0.04146483 0 0 Z M-11.4375 4.53125 C-11.88787172 7.21139563 -11.88787172 7.21139563 -11.80078125 10.34375 C-11.80013672 11.50132813 -11.79949219 12.65890625 -11.79882812 13.8515625 C-11.78271484 15.06585938 -11.76660156 16.28015625 -11.75 17.53125 C-11.75322266 18.74554688 -11.75644531 19.95984375 -11.75976562 21.2109375 C-12.18972568 27.45360217 -12.18972568 27.45360217 -9.4375 32.53125 C-6.3873089 32.73143591 -3.42987528 32.81095761 -0.37890625 32.796875 C0.52118668 32.79878845 1.4212796 32.8007019 2.34864807 32.80267334 C4.25432616 32.80403573 6.16001351 32.80033557 8.06567383 32.79199219 C10.98474995 32.78130583 13.90320889 32.79187922 16.82226562 32.8046875 C18.67187636 32.80336567 20.52148671 32.80080279 22.37109375 32.796875 C23.24616074 32.80092346 24.12122772 32.80497192 25.02281189 32.80914307 C25.83698074 32.80283875 26.6511496 32.79653442 27.48999023 32.79003906 C28.20565659 32.78844788 28.92132294 32.78685669 29.65867615 32.78521729 C31.89179717 32.62935906 31.89179717 32.62935906 34.5625 30.53125 C34.97987872 27.81641406 34.97987872 27.81641406 34.85546875 24.6484375 C34.84580078 23.48183594 34.83613281 22.31523438 34.82617188 21.11328125 C34.80103516 19.88996094 34.77589844 18.66664062 34.75 17.40625 C34.73646484 16.17519531 34.72292969 14.94414063 34.70898438 13.67578125 C34.67353543 10.62717157 34.62412079 7.579425 34.5625 4.53125 C33.5725 4.53125 32.5825 4.53125 31.5625 4.53125 C31.5625 3.87125 31.5625 3.21125 31.5625 2.53125 C25.92083009 2.48184501 20.27928587 2.44552807 14.63745117 2.42138672 C12.71783251 2.41132361 10.79822919 2.39767184 8.87866211 2.38037109 C6.12089248 2.35613636 3.36332536 2.34477008 0.60546875 2.3359375 C-0.25399857 2.32561493 -1.11346588 2.31529236 -1.99897766 2.30465698 C-2.79958115 2.30450592 -3.60018463 2.30435486 -4.42504883 2.30419922 C-5.1289827 2.299758 -5.83291656 2.29531677 -6.55818176 2.29074097 C-8.7708238 2.43237227 -8.7708238 2.43237227 -11.4375 4.53125 Z " fill="#534146" transform="translate(38.4375,32.46875)"/>
<path d="M0 0 C3.86704105 0.4354776 6.27209889 2.4979035 9.25 4.875 C10.14203125 5.57367188 11.0340625 6.27234375 11.953125 6.9921875 C12.62859375 7.65476562 13.3040625 8.31734375 14 9 C14 9.99 14 10.98 14 12 C14.99 12.33 15.98 12.66 17 13 C15.85833779 16.42498663 14.83747094 16.85565832 11.8984375 18.68359375 C7.96793116 21.40906831 4.52248349 24.77497067 1 28 C0.34 27.67 -0.32 27.34 -1 27 C-1.02886537 22.68751391 -1.04675255 18.37505238 -1.0625 14.0625 C-1.07087891 12.83080078 -1.07925781 11.59910156 -1.08789062 10.33007812 C-1.09111328 9.16025391 -1.09433594 7.99042969 -1.09765625 6.78515625 C-1.10289307 5.70113525 -1.10812988 4.61711426 -1.11352539 3.50024414 C-1 1 -1 1 0 0 Z " fill="#769BC8" transform="translate(28,36)"/>
<path d="M0 0 C0 8.58 0 17.16 0 26 C-4.25957497 26 -5.40597057 24.02901599 -8.4375 21.125 C-12.77895366 16.91609115 -12.77895366 16.91609115 -18 14 C-16.6513881 9.86762236 -14.95618595 7.65268595 -11.6875 4.8125 C-10.92824219 4.13832031 -10.16898438 3.46414062 -9.38671875 2.76953125 C-3.3750824 -1.6875412 -3.3750824 -1.6875412 0 0 Z " fill="#769CC9" transform="translate(73,37)"/>
<path d="M0 0 C0.22705078 2.61376953 0.22705078 2.61376953 0.1953125 5.8828125 C0.18886719 7.04941406 0.18242188 8.21601562 0.17578125 9.41796875 C0.15902344 10.64128906 0.14226562 11.86460938 0.125 13.125 C0.11597656 14.35605469 0.10695312 15.58710937 0.09765625 16.85546875 C0.07402548 19.90383815 0.04108054 22.95182382 0 26 C-0.66 25.67 -1.32 25.34 -2 25 C-2.495 12.625 -2.495 12.625 -3 0 C-4.32 0.33 -5.64 0.66 -7 1 C-6.67 0.34 -6.34 -0.32 -6 -1 C-18.54 -1.33 -31.08 -1.66 -44 -2 C-44 -2.33 -44 -2.66 -44 -3 C-38.66182919 -3.19255164 -33.32344126 -3.37122798 -27.984375 -3.53710938 C-26.16849343 -3.595477 -24.35272917 -3.65762216 -22.53710938 -3.72363281 C-19.92599852 -3.81790706 -17.31476605 -3.89854918 -14.703125 -3.9765625 C-13.89256653 -4.00875885 -13.08200806 -4.0409552 -12.24688721 -4.0741272 C-6.76665968 -4.21948959 -3.86464623 -3.86464623 0 0 Z " fill="#6F6A74" transform="translate(75,37)"/>
<path d="M0 0 C1.485 0.99 1.485 0.99 3 2 C4.95520809 2.32491235 4.95520809 2.32491235 7.10424805 2.31884766 C7.92487228 2.33871735 8.74549652 2.35858704 9.59098816 2.37905884 C10.47232925 2.39061005 11.35367035 2.40216125 12.26171875 2.4140625 C13.16751175 2.43342865 14.07330475 2.4527948 15.00654602 2.4727478 C17.90010151 2.53253542 20.7936968 2.57892568 23.6875 2.625 C25.64910591 2.66318054 27.61069506 2.70223231 29.57226562 2.7421875 C34.3813744 2.83823632 39.19056166 2.92227043 44 3 C44.33 2.34 44.66 1.68 45 1 C45.99 0.67 46.98 0.34 48 0 C46.125 3.875 46.125 3.875 45 5 C41.93258218 5.12604257 38.88893175 5.18870085 35.8203125 5.203125 C34.43475662 5.21167511 34.43475662 5.21167511 33.02120972 5.22039795 C31.06249137 5.22986345 29.10375698 5.23638806 27.14501953 5.24023438 C24.14457452 5.2499367 21.1448152 5.28094401 18.14453125 5.3125 C16.24479575 5.31903002 14.34505533 5.3242805 12.4453125 5.328125 C11.54523468 5.3404718 10.64515686 5.3528186 9.71780396 5.36553955 C8.88038666 5.36253845 8.04296936 5.35953735 7.18017578 5.35644531 C6.44372833 5.36009094 5.70728088 5.36373657 4.94851685 5.36749268 C2.44503237 4.89533242 1.54001922 3.99252862 0 2 C0 1.34 0 0.68 0 0 Z " fill="#4A444F" transform="translate(26,62)"/>
<path d="M0 0 C3 0.125 3 0.125 4 1.125 C4.125 4.125 4.125 4.125 4 7.125 C3 8.125 3 8.125 0 8.25 C-3 8.125 -3 8.125 -4 7.125 C-4.125 4.125 -4.125 4.125 -4 1.125 C-3 0.125 -3 0.125 0 0 Z " fill="#FACC58" transform="translate(17,73.875)"/>
<path d="M0 0 C3 0.125 3 0.125 4 1.125 C4.125 4.125 4.125 4.125 4 7.125 C3 8.125 3 8.125 0 8.25 C-3 8.125 -3 8.125 -4 7.125 C-4.125 4.125 -4.125 4.125 -4 1.125 C-3 0.125 -3 0.125 0 0 Z " fill="#F0BB19" transform="translate(84,11.875)"/>
<path d="M0 0 C1.98 0.495 1.98 0.495 4 1 C3.67 2.32 3.34 3.64 3 5 C1.68 4.67 0.36 4.34 -1 4 C-0.67 2.68 -0.34 1.36 0 0 Z " fill="#FEFAF9" transform="translate(65,76)"/>
<path d="M0 0 C1.32 0 2.64 0 4 0 C4 1.32 4 2.64 4 4 C2.68 4 1.36 4 0 4 C0 2.68 0 1.36 0 0 Z " fill="#ED3D53" transform="translate(22,81)"/>
<path d="M0 0 C1.32 0 2.64 0 4 0 C4 1.32 4 2.64 4 4 C2.68 4 1.36 4 0 4 C0 2.68 0 1.36 0 0 Z " fill="#ED3D53" transform="translate(12,24)"/>
<path d="M0 0 C0.66 0 1.32 0 2 0 C2 0.66 2 1.32 2 2 C1.34 2 0.68 2 0 2 C0 1.34 0 0.68 0 0 Z " fill="#F0BB18" transform="translate(85,30)"/>
<path d="M0 0 C0.66 0 1.32 0 2 0 C2 0.66 2 1.32 2 2 C1.34 2 0.68 2 0 2 C0 1.34 0 0.68 0 0 Z " fill="#F0BB18" transform="translate(77,13)"/>
</svg>
