<?xml version="1.0" encoding="UTF-8"?>
<svg version="1.1" xmlns="http://www.w3.org/2000/svg" width="100" height="100">
<path d="M0 0 C9.40707465 5.68464327 15.68680199 13.83643636 18.546875 24.5390625 C19.81816587 35.18018906 19.08411233 45.14253855 13.546875 54.5390625 C12.556875 55.5290625 12.556875 55.5290625 11.546875 56.5390625 C13.031875 57.0340625 13.031875 57.0340625 14.546875 57.5390625 C14.546875 58.8590625 14.546875 60.1790625 14.546875 61.5390625 C13.226875 61.5390625 11.906875 61.5390625 10.546875 61.5390625 C10.216875 60.8790625 9.886875 60.2190625 9.546875 59.5390625 C9.01320313 59.99796875 8.47953125 60.456875 7.9296875 60.9296875 C-2.56169886 69.56965274 -11.91574525 71.83539098 -25.31445312 70.80957031 C-34.8744138 69.60038807 -42.8797787 64.22976046 -48.828125 56.828125 C-51.453125 53.09114583 -51.453125 53.09114583 -51.453125 50.5390625 C-53.1546875 50.57 -53.1546875 50.57 -54.890625 50.6015625 C-58.453125 50.5390625 -58.453125 50.5390625 -59.453125 49.5390625 C-59.49393283 47.53947886 -59.49566856 45.53860996 -59.453125 43.5390625 C-57.473125 43.0440625 -57.473125 43.0440625 -55.453125 42.5390625 C-55.51113281 41.37890625 -55.56914063 40.21875 -55.62890625 39.0234375 C-56.04622279 27.12672559 -54.92396037 17.81864643 -47.265625 8.1640625 C-35.15523336 -4.528051 -15.68937207 -7.75800442 0 0 Z " fill="#F2DDA2" transform="translate(69.453125,16.4609375)"/>
<path d="M0 0 C1.17018677 -0.00717545 1.17018677 -0.00717545 2.36401367 -0.01449585 C4.00799586 -0.01788758 5.65204615 -0.00873581 7.29589844 0.01220703 C9.80557295 0.03898858 12.31077629 0.0124405 14.8203125 -0.01953125 C16.42188482 -0.01622702 18.02345438 -0.00982049 19.625 0 C20.37096436 -0.01012115 21.11692871 -0.02024231 21.88549805 -0.03067017 C25.63228986 0.05318364 27.67900936 0.5723589 30.78710938 2.70751953 C33.31575699 6.39868667 33.50416806 9.30829857 33.40625 13.6328125 C33.40629028 14.39074097 33.40633057 15.14866943 33.40637207 15.92956543 C33.40102829 17.52653326 33.38349405 19.12350144 33.35449219 20.72021484 C33.3126257 23.15674693 33.31342741 25.5905124 33.3203125 28.02734375 C33.30981895 29.58335243 33.29687995 31.13934694 33.28125 32.6953125 C33.28104858 33.41940308 33.28084717 34.14349365 33.28063965 34.88952637 C33.17846355 39.28309844 32.5886269 42.20780086 29.8125 45.6640625 C24.17080153 47.54462866 17.82467621 46.97042351 11.90722656 47.01416016 C10.2641789 47.03072707 8.62120354 47.05802729 6.97851562 47.09619141 C4.60248672 47.15105954 2.22814017 47.17284468 -0.1484375 47.1875 C-0.87880219 47.21016937 -1.60916687 47.23283875 -2.36166382 47.25619507 C-6.08291123 47.24083931 -8.05503818 46.75447468 -11.1484375 44.64306641 C-13.71499374 40.89341133 -13.91120814 37.87265363 -13.8515625 33.4765625 C-13.85634613 32.69643799 -13.86112976 31.91631348 -13.86605835 31.11254883 C-13.86945008 29.46856664 -13.86029831 27.82451635 -13.83935547 26.18066406 C-13.81257392 23.67098955 -13.839122 21.16578621 -13.87109375 18.65625 C-13.86778952 17.05467768 -13.86138299 15.45310812 -13.8515625 13.8515625 C-13.86168365 13.10559814 -13.87180481 12.35963379 -13.88223267 11.59106445 C-13.79860853 7.85453502 -13.27904988 5.7980288 -11.15771484 2.69384766 C-7.41296813 0.13476298 -4.38847906 -0.05954236 0 0 Z " fill="#DF3F53" transform="translate(41.1875,26.3359375)"/>
<path d="M0 0 C1.17018677 -0.00717545 1.17018677 -0.00717545 2.36401367 -0.01449585 C4.00799586 -0.01788758 5.65204615 -0.00873581 7.29589844 0.01220703 C9.80557295 0.03898858 12.31077629 0.0124405 14.8203125 -0.01953125 C16.42188482 -0.01622702 18.02345438 -0.00982049 19.625 0 C20.37096436 -0.01012115 21.11692871 -0.02024231 21.88549805 -0.03067017 C25.63228986 0.05318364 27.67900936 0.5723589 30.78710938 2.70751953 C33.31575699 6.39868667 33.50416806 9.30829857 33.40625 13.6328125 C33.40629028 14.39074097 33.40633057 15.14866943 33.40637207 15.92956543 C33.40102829 17.52653326 33.38349405 19.12350144 33.35449219 20.72021484 C33.3126257 23.15674693 33.31342741 25.5905124 33.3203125 28.02734375 C33.30981895 29.58335243 33.29687995 31.13934694 33.28125 32.6953125 C33.28104858 33.41940308 33.28084717 34.14349365 33.28063965 34.88952637 C33.17846355 39.28309844 32.5886269 42.20780086 29.8125 45.6640625 C24.17080153 47.54462866 17.82467621 46.97042351 11.90722656 47.01416016 C10.2641789 47.03072707 8.62120354 47.05802729 6.97851562 47.09619141 C4.60248672 47.15105954 2.22814017 47.17284468 -0.1484375 47.1875 C-0.87880219 47.21016937 -1.60916687 47.23283875 -2.36166382 47.25619507 C-6.08291123 47.24083931 -8.05503818 46.75447468 -11.1484375 44.64306641 C-13.71499374 40.89341133 -13.91120814 37.87265363 -13.8515625 33.4765625 C-13.85634613 32.69643799 -13.86112976 31.91631348 -13.86605835 31.11254883 C-13.86945008 29.46856664 -13.86029831 27.82451635 -13.83935547 26.18066406 C-13.81257392 23.67098955 -13.839122 21.16578621 -13.87109375 18.65625 C-13.86778952 17.05467768 -13.86138299 15.45310812 -13.8515625 13.8515625 C-13.86168365 13.10559814 -13.87180481 12.35963379 -13.88223267 11.59106445 C-13.79860853 7.85453502 -13.27904988 5.7980288 -11.15771484 2.69384766 C-7.41296813 0.13476298 -4.38847906 -0.05954236 0 0 Z M-8.1875 2.6640625 C-7.5275 3.3240625 -6.8675 3.9840625 -6.1875 4.6640625 C-6.91767334 5.18419922 -6.91767334 5.18419922 -7.66259766 5.71484375 C-9.96801959 8.66176798 -9.57635754 11.15461064 -9.5859375 14.8515625 C-9.58880768 15.55047607 -9.59167786 16.24938965 -9.59463501 16.96948242 C-9.59667425 18.44548351 -9.59115403 19.92151171 -9.57861328 21.39746094 C-9.5625558 23.65621388 -9.5784647 25.91317768 -9.59765625 28.171875 C-9.59567379 29.60677478 -9.59183006 31.04167345 -9.5859375 32.4765625 C-9.58255371 33.78238281 -9.57916992 35.08820312 -9.57568359 36.43359375 C-9.40383574 39.55235598 -9.40383574 39.55235598 -8.13208008 41.5949707 C-5.09661351 43.26381039 -2.04633369 43.03123131 1.32421875 42.95703125 C1.96991821 42.95401001 2.61561768 42.95098877 3.28088379 42.94787598 C5.68741901 42.93220788 8.09372595 42.89032358 10.5 42.8515625 C15.883125 42.7896875 21.26625 42.7278125 26.8125 42.6640625 C15.5925 42.9940625 4.3725 43.3240625 -7.1875 43.6640625 C-7.1875 43.9940625 -7.1875 44.3240625 -7.1875 44.6640625 C-2.09718245 44.71342408 2.99299643 44.74976355 8.08349609 44.77392578 C9.81594265 44.78399626 11.54837216 44.79765339 13.28076172 44.81494141 C15.76794639 44.83914412 18.25490675 44.85053489 20.7421875 44.859375 C21.90788773 44.87485886 21.90788773 44.87485886 23.09713745 44.89065552 C25.00375493 44.89105521 26.90981036 44.7863839 28.8125 44.6640625 C31.19933505 42.71741728 31.19933505 42.71741728 31.03955078 39.13232422 C31.03923363 37.61942919 31.02790633 36.10651162 31.0078125 34.59375 C31.00356766 33.39940842 31.00356766 33.39940842 30.99923706 32.18093872 C30.9880264 29.63349487 30.96292062 27.08640039 30.9375 24.5390625 C30.92747133 22.81380715 30.91834528 21.08854631 30.91015625 19.36328125 C30.88808422 15.13007336 30.85354867 10.8971272 30.8125 6.6640625 C30.1525 6.9940625 29.4925 7.3240625 28.8125 7.6640625 C28.27689453 6.92736328 28.27689453 6.92736328 27.73046875 6.17578125 C24.90696905 3.95033444 22.66031046 4.37155328 19.125 4.4765625 C17.94550781 4.50363281 16.76601563 4.53070312 15.55078125 4.55859375 C14.64714844 4.59339844 13.74351563 4.62820312 12.8125 4.6640625 C12.8125 4.0040625 12.8125 3.3440625 12.8125 2.6640625 C5.8825 2.6640625 -1.0475 2.6640625 -8.1875 2.6640625 Z " fill="#783437" transform="translate(41.1875,26.3359375)"/>
<path d="M0 0 C0.05787784 3.62493334 0.0935542 7.24974857 0.125 10.875 C0.14175781 11.90753906 0.15851562 12.94007812 0.17578125 14.00390625 C0.18222656 14.99003906 0.18867187 15.97617187 0.1953125 16.9921875 C0.20578613 17.90339355 0.21625977 18.81459961 0.22705078 19.75341797 C0 22 0 22 -2 24 C-4.625 23.625 -4.625 23.625 -7 23 C-6.75 21.125 -6.75 21.125 -6 19 C-5.34 18.7421875 -4.68 18.484375 -4 18.21875 C-3.34 17.8165625 -2.68 17.414375 -2 17 C-1.29626983 14.35212912 -1.29626983 14.35212912 -1.25 11.375 C-1.1675 9.60125 -1.085 7.8275 -1 6 C-4.96 6.99 -8.92 7.98 -13 9 C-13.04898438 10.13179687 -13.09796875 11.26359375 -13.1484375 12.4296875 C-13.22346514 13.91148339 -13.29901297 15.393253 -13.375 16.875 C-13.4059375 17.62136719 -13.436875 18.36773437 -13.46875 19.13671875 C-13.7734375 24.7734375 -13.7734375 24.7734375 -16 27 C-18.625 27.125 -18.625 27.125 -21 27 C-20.67 25.35 -20.34 23.7 -20 22 C-18.68 22 -17.36 22 -16 22 C-15.67 15.73 -15.34 9.46 -15 3 C-3.375 0 -3.375 0 0 0 Z " fill="#F8F6EA" transform="translate(60,37)"/>
<path d="M0 0 C4.34161825 -0.04952706 8.68308575 -0.08577954 13.02490234 -0.10986328 C14.50116847 -0.11990591 15.97741479 -0.13354265 17.45361328 -0.15087891 C19.57850034 -0.17520421 21.70312385 -0.1865004 23.828125 -0.1953125 C25.1059082 -0.20578613 26.38369141 -0.21625977 27.70019531 -0.22705078 C30.79536935 -0.01408009 32.51210412 0.18863721 35 2 C36.35015859 6.05047576 35.62084998 8.7920168 35 13 C34.67 13 34.34 13 34 13 C33.505 8.545 33.505 8.545 33 4 C28.05 3.67 23.1 3.34 18 3 C18 2.34 18 1.68 18 1 C12.06 1 6.12 1 0 1 C0 0.67 0 0.34 0 0 Z " fill="#A0353F" transform="translate(36,28)"/>
<path d="M0 0 C3 0.125 3 0.125 4 1.125 C4.125 4.125 4.125 4.125 4 7.125 C3 8.125 3 8.125 0 8.25 C-3 8.125 -3 8.125 -4 7.125 C-4.125 4.125 -4.125 4.125 -4 1.125 C-3 0.125 -3 0.125 0 0 Z " fill="#E2B933" transform="translate(84,10.875)"/>
<path d="M0 0 C2.5625 0.1875 2.5625 0.1875 4.5625 2.1875 C4.1875 5.3125 4.1875 5.3125 3.5625 8.1875 C1.56295254 8.23004356 -0.43791636 8.22830783 -2.4375 8.1875 C-3.4375 7.1875 -3.4375 7.1875 -3.5625 4.1875 C-3.39891479 0.26145498 -3.39891479 0.26145498 0 0 Z " fill="#EDCB62" transform="translate(13.4375,58.8125)"/>
<path d="M0 0 C1.98 0.495 1.98 0.495 4 1 C3.67 2.32 3.34 3.64 3 5 C1.68 4.67 0.36 4.34 -1 4 C-0.67 2.68 -0.34 1.36 0 0 Z " fill="#FDFBF4" transform="translate(19,39)"/>
<path d="M0 0 C1.32 0 2.64 0 4 0 C4 1.32 4 2.64 4 4 C2.68 4 1.36 4 0 4 C0 2.68 0 1.36 0 0 Z " fill="#CC3F53" transform="translate(24,85)"/>
<path d="M0 0 C1.32 0 2.64 0 4 0 C4 1.32 4 2.64 4 4 C2.68 4 1.36 4 0 4 C0 2.68 0 1.36 0 0 Z " fill="#CC3F53" transform="translate(12,27)"/>
<path d="M0 0 C1.32 0 2.64 0 4 0 C4 1.32 4 2.64 4 4 C2.68 4 1.36 4 0 4 C0 2.68 0 1.36 0 0 Z " fill="#CC3F53" transform="translate(86,22)"/>
<path d="M0 0 C0.66 0 1.32 0 2 0 C2 0.66 2 1.32 2 2 C1.34 2 0.68 2 0 2 C0 1.34 0 0.68 0 0 Z " fill="#E2B933" transform="translate(14,70)"/>
<path d="M0 0 C0.66 0 1.32 0 2 0 C2 0.66 2 1.32 2 2 C1.34 2 0.68 2 0 2 C0 1.34 0 0.68 0 0 Z " fill="#E2B933" transform="translate(77,12)"/>
</svg>
