<?xml version="1.0" encoding="UTF-8"?>
<svg version="1.1" xmlns="http://www.w3.org/2000/svg" width="100" height="100">
<path d="M0 0 C9.40707465 5.68464327 15.68680199 13.83643636 18.546875 24.5390625 C19.81816587 35.18018906 19.08411233 45.14253855 13.546875 54.5390625 C12.556875 55.5290625 12.556875 55.5290625 11.546875 56.5390625 C13.031875 57.0340625 13.031875 57.0340625 14.546875 57.5390625 C14.546875 58.8590625 14.546875 60.1790625 14.546875 61.5390625 C13.226875 61.5390625 11.906875 61.5390625 10.546875 61.5390625 C10.216875 60.8790625 9.886875 60.2190625 9.546875 59.5390625 C9.01320313 59.99796875 8.47953125 60.456875 7.9296875 60.9296875 C-2.56169886 69.56965274 -11.91574525 71.83539098 -25.31445312 70.80957031 C-34.8744138 69.60038807 -42.8797787 64.22976046 -48.828125 56.828125 C-51.453125 53.09114583 -51.453125 53.09114583 -51.453125 50.5390625 C-52.2575 50.5596875 -53.061875 50.5803125 -53.890625 50.6015625 C-56.453125 50.5390625 -56.453125 50.5390625 -57.453125 49.5390625 C-57.578125 46.5390625 -57.578125 46.5390625 -57.453125 43.5390625 C-56.958125 43.0440625 -56.958125 43.0440625 -56.453125 42.5390625 C-56.37687052 40.5797461 -56.30610979 38.62003955 -56.26513672 36.65966797 C-55.96707395 24.96481162 -53.82146128 15.03480794 -45.4765625 6.2890625 C-32.87910695 -4.60603419 -15.10756629 -7.47031593 0 0 Z " fill="#E5EDB6" transform="translate(68.453125,16.4609375)"/>
<path d="M0 0 C0.9796875 0.01289063 1.959375 0.02578125 2.96875 0.0390625 C3.98453125 0.07257812 5.0003125 0.10609375 6.046875 0.140625 C7.078125 0.15867187 8.109375 0.17671875 9.171875 0.1953125 C11.71448564 0.24239788 14.25520662 0.3081445 16.796875 0.390625 C16.87035156 1.54691406 16.87035156 1.54691406 16.9453125 2.7265625 C17.02007812 3.72945312 17.09484375 4.73234375 17.171875 5.765625 C17.24148437 6.76335938 17.31109375 7.76109375 17.3828125 8.7890625 C17.56051464 11.54571379 17.56051464 11.54571379 19.796875 13.390625 C22.45930321 13.85352721 22.45930321 13.85352721 25.421875 14.015625 C26.42476562 14.09039062 27.42765625 14.16515625 28.4609375 14.2421875 C29.23179688 14.29117188 30.00265625 14.34015625 30.796875 14.390625 C30.8957553 19.0353371 30.9683465 23.67943673 31.01660156 28.32495117 C31.03671686 29.90513785 31.06401304 31.48525009 31.09863281 33.06518555 C31.14715843 35.33661248 31.16984309 37.60705558 31.1875 39.87890625 C31.20814514 40.58525711 31.22879028 41.29160797 31.25006104 42.0193634 C31.25145379 45.06399115 31.17180111 46.92662772 29.22558594 49.33520508 C25.90201226 50.77949629 23.16868134 50.77959314 19.546875 50.7890625 C18.85174805 50.79193268 18.15662109 50.79480286 17.44042969 50.79776001 C15.97460106 50.79979634 14.50874499 50.79429656 13.04296875 50.78173828 C10.80406723 50.7656766 8.56697063 50.78159958 6.328125 50.80078125 C4.9010377 50.79879874 3.47395151 50.7949549 2.046875 50.7890625 C0.75265625 50.78567871 -0.5415625 50.78229492 -1.875 50.77880859 C-5.203125 50.390625 -5.203125 50.390625 -7.62304688 49.46313477 C-10.28865312 45.96679184 -9.77225629 42.10133297 -9.734375 37.83203125 C-9.7382019 36.89133286 -9.74202881 35.95063446 -9.74597168 34.98143005 C-9.74869388 32.99175955 -9.74131118 31.00205344 -9.72460938 29.01245117 C-9.70322787 25.96777381 -9.7243882 22.92546259 -9.75 19.88085938 C-9.74735631 17.94791146 -9.74223048 16.01496501 -9.734375 14.08203125 C-9.74247192 13.17151505 -9.75056885 12.26099884 -9.75891113 11.32289124 C-9.66656803 5.09102283 -9.66656803 5.09102283 -7.49511719 1.80932617 C-4.75008073 0.1101989 -3.21232328 -0.07470519 0 0 Z " fill="#DBE1DF" transform="translate(40.203125,24.609375)"/>
<path d="M0 0 C5.37371611 0.87150437 8.96985483 2.42954034 12.78076172 6.32763672 C19.43460329 15.74244845 17.33615956 30.85364562 16.86914062 41.79492188 C16.84318817 42.52576996 16.81723572 43.25661804 16.79049683 44.00961304 C16.62493544 46.74582032 16.37692974 49.02268581 15.07617188 51.46069336 C11.89187691 53.16128802 8.58006257 52.95301728 5.05664062 52.93945312 C3.87509399 52.9473159 3.87509399 52.9473159 2.66967773 52.95533752 C1.00538308 52.96175689 -0.65895695 52.96042179 -2.32324219 52.9519043 C-4.87191339 52.94338926 -7.41834691 52.97216136 -9.96679688 53.00390625 C-11.5839837 53.00551823 -13.2011745 53.00494079 -14.81835938 53.00195312 C-15.96220093 53.01880409 -15.96220093 53.01880409 -17.12915039 53.03599548 C-19.28320312 53.00756836 -19.28320312 53.00756836 -22.88085938 52.50585938 C-25.56444613 49.74782085 -26.25743502 47.76922628 -26.26904297 43.96850586 C-26.27849945 43.07755722 -26.28795593 42.18660858 -26.29769897 41.2686615 C-26.29162628 40.31439774 -26.28555359 39.36013397 -26.27929688 38.37695312 C-26.28216705 37.39090591 -26.28503723 36.4048587 -26.28799438 35.38893127 C-26.2900339 33.30688909 -26.28451195 31.22482769 -26.27197266 29.14282227 C-26.25590063 25.95155156 -26.2718343 22.76154411 -26.29101562 19.5703125 C-26.28903351 17.54752324 -26.28519049 15.52473477 -26.27929688 13.50195312 C-26.28536957 12.54566513 -26.29144226 11.58937714 -26.29769897 10.60411072 C-26.28351425 9.272416 -26.28351425 9.272416 -26.26904297 7.91381836 C-26.26665619 7.13312485 -26.26426941 6.35243134 -26.2618103 5.54808044 C-24.51013986 -3.84236337 -6.81731344 -0.640944 0 0 Z M-23.17285156 2.92456055 C-25.78305651 6.86934284 -25.45331042 10.56412079 -25.41210938 15.19726562 C-25.41593628 16.13892075 -25.41976318 17.08057587 -25.42370605 18.05076599 C-25.42642489 20.03865632 -25.4190657 22.02658244 -25.40234375 24.0144043 C-25.3809098 27.06119226 -25.40215859 30.10562854 -25.42773438 33.15234375 C-25.42509156 35.08398959 -25.41996755 37.01563396 -25.41210938 38.94726562 C-25.4202063 39.85980606 -25.42830322 40.7723465 -25.43664551 41.71253967 C-25.44918837 46.48843439 -25.44918837 46.48843439 -23.30078125 50.57836914 C-19.98570152 51.84894903 -17.18178401 51.89501283 -13.63085938 51.90429688 C-12.58816895 51.90860214 -12.58816895 51.90860214 -11.52441406 51.91299438 C-10.05858544 51.91503071 -8.59272937 51.90953093 -7.12695312 51.89697266 C-4.8880516 51.88091097 -2.650955 51.89683395 -0.41210938 51.91601562 C1.01497793 51.91403311 2.44206411 51.91018927 3.86914062 51.90429688 C5.16335937 51.90091309 6.45757812 51.8975293 7.79101562 51.89404297 C12.11028828 51.39294861 12.11028828 51.39294861 15.11914062 48.50585938 C15.47583956 45.8588081 15.58690859 43.63350262 15.50976562 40.99414062 C15.50127594 39.90180367 15.50127594 39.90180367 15.49261475 38.78739929 C15.47024091 36.46371439 15.42004731 34.1415773 15.36914062 31.81835938 C15.34907671 30.24220979 15.33082575 28.666036 15.31445312 27.08984375 C15.27037345 23.22792014 15.20134288 19.36715207 15.11914062 15.50585938 C14.34828125 15.456875 13.57742187 15.40789063 12.78320312 15.35742188 C11.7803125 15.28265625 10.77742188 15.20789062 9.74414062 15.13085938 C8.24753906 15.02644531 8.24753906 15.02644531 6.72070312 14.91992188 C4.11914062 14.50585938 4.11914062 14.50585938 2.11914062 12.50585938 C1.70507812 9.90429687 1.70507812 9.90429687 1.49414062 6.88085938 C1.419375 5.87796875 1.34460938 4.87507813 1.26757812 3.84179688 C1.21859375 3.0709375 1.16960938 2.30007812 1.11914062 1.50585938 C-2.4639193 1.38958434 -6.04649355 1.31858578 -9.63085938 1.25585938 C-10.64664063 1.22234375 -11.66242187 1.18882813 -12.70898438 1.15429688 C-13.68867187 1.14140625 -14.66835938 1.12851562 -15.67773438 1.11523438 C-16.5784668 1.09428711 -17.47919922 1.07333984 -18.40722656 1.05175781 C-20.96632336 1.3663664 -20.96632336 1.3663664 -23.17285156 2.92456055 Z " fill="#513834" transform="translate(55.880859375,23.494140625)"/>
<path d="M0 0 C4.95 0 9.9 0 15 0 C15 5.94 15 11.88 15 18 C10.05 18 5.1 18 0 18 C0 12.06 0 6.12 0 0 Z " fill="#FDFDFD" transform="translate(39,32)"/>
<path d="M0 0 C4.95 0 9.9 0 15 0 C15 5.94 15 11.88 15 18 C10.05 18 5.1 18 0 18 C0 12.06 0 6.12 0 0 Z M1 1 C1 5.95 1 10.9 1 16 C2.32 15.34 3.64 14.68 5 14 C5 13.34 5 12.68 5 12 C5.99 12.33 6.98 12.66 8 13 C8.33 12.67 8.66 12.34 9 12 C9.639375 12.66 10.27875 13.32 10.9375 14 C12.64082319 16.11602431 12.64082319 16.11602431 14 16 C14 11.05 14 6.1 14 1 C9.71 1 5.42 1 1 1 Z " fill="#A97A86" transform="translate(39,32)"/>
<path d="M0 0 C4.52615993 3.67832017 8.39424999 7.41086363 12 12 C10.56344146 12.08131463 9.1255517 12.13933559 7.6875 12.1875 C6.48673828 12.23970703 6.48673828 12.23970703 5.26171875 12.29296875 C3 12 3 12 1.21875 10.78125 C-0.35672932 8.47862638 -0.30765272 7.07601256 -0.1875 4.3125 C-0.16042969 3.50425781 -0.13335937 2.69601563 -0.10546875 1.86328125 C-0.07066406 1.24839844 -0.03585938 0.63351563 0 0 Z " fill="#86CDCA" transform="translate(58,26)"/>
<path d="M0 0 C3 0.125 3 0.125 4 1.125 C4.125 4.125 4.125 4.125 4 7.125 C3 8.125 3 8.125 0 8.25 C-3 8.125 -3 8.125 -4 7.125 C-4.125 4.125 -4.125 4.125 -4 1.125 C-3 0.125 -3 0.125 0 0 Z " fill="#F0BB19" transform="translate(83,10.875)"/>
<path d="M0 0 C2.5625 0.1875 2.5625 0.1875 4.5625 2.1875 C4.00694444 6.74305556 4.00694444 6.74305556 2.5625 8.1875 C0.0625 8.3125 0.0625 8.3125 -2.4375 8.1875 C-3.4375 7.1875 -3.4375 7.1875 -3.5625 4.1875 C-3.39891479 0.26145498 -3.39891479 0.26145498 0 0 Z " fill="#FACD5B" transform="translate(14.4375,58.8125)"/>
<path d="M0 0 C5.56818182 0.56818182 5.56818182 0.56818182 7 2 C6.71269945 4.33944736 6.38063221 6.6739143 6 9 C5.67 7.68 5.34 6.36 5 5 C3.35 4.67 1.7 4.34 0 4 C0 5.65 0 7.3 0 9 C-2 7 -2 7 -2.25 4.5 C-2 2 -2 2 0 0 Z " fill="#A87E69" transform="translate(44,34)"/>
<path d="M0 0 C1.98 0 3.96 0 6 0 C6 4.95 6 9.9 6 15 C4.68 14.34 3.36 13.68 2 13 C2.10699219 12.31292969 2.21398438 11.62585937 2.32421875 10.91796875 C2.50404297 9.56638672 2.50404297 9.56638672 2.6875 8.1875 C2.81511719 7.29417969 2.94273438 6.40085937 3.07421875 5.48046875 C3.24891882 2.92975791 3.24891882 2.92975791 1.51953125 1.17578125 C1.01808594 0.78777344 0.51664063 0.39976563 0 0 Z " fill="#FDFDFD" transform="translate(47,33)"/>
<path d="M0 0 C1.65 0.33 3.3 0.66 5 1 C4.625 3.4375 4.625 3.4375 4 6 C3.01 6.495 3.01 6.495 2 7 C1.01 6.34 0.02 5.68 -1 5 C-0.67 3.35 -0.34 1.7 0 0 Z " fill="#F4E2E0" transform="translate(44,38)"/>
<path d="M0 0 C1.98 0.495 1.98 0.495 4 1 C3.67 2.32 3.34 3.64 3 5 C1.68 4.67 0.36 4.34 -1 4 C-0.67 2.68 -0.34 1.36 0 0 Z " fill="#FCFCF7" transform="translate(17,49)"/>
<path d="M0 0 C1.65 0 3.3 0 5 0 C5 1.32 5 2.64 5 4 C3.68 4 2.36 4 1 4 C0.67 2.68 0.34 1.36 0 0 Z " fill="#FACF5A" transform="translate(78,74)"/>
<path d="M0 0 C1.32 0 2.64 0 4 0 C4 1.32 4 2.64 4 4 C2.68 4 1.36 4 0 4 C0 2.68 0 1.36 0 0 Z " fill="#87AD44" transform="translate(23,85)"/>
<path d="M0 0 C1.32 0 2.64 0 4 0 C4 1.32 4 2.64 4 4 C2.68 4 1.36 4 0 4 C0 2.68 0 1.36 0 0 Z " fill="#87AD44" transform="translate(85,22)"/>
<path d="M0 0 C0.66 0 1.32 0 2 0 C2 0.66 2 1.32 2 2 C1.34 2 0.68 2 0 2 C0 1.34 0 0.68 0 0 Z " fill="#F0BB18" transform="translate(76,12)"/>
</svg>
